<svg xmlns="http://www.w3.org/2000/svg" xmlns:xlink="http://www.w3.org/1999/xlink" width="48" zoomAndPan="magnify" viewBox="0 0 36 30.000001" height="40" preserveAspectRatio="xMidYMid meet" version="1.0"><defs><clipPath id="ddf8fb34a0"><path d="M 7 2.757812 L 18 2.757812 L 18 24 L 7 24 Z M 7 2.757812 " clip-rule="nonzero"/></clipPath><clipPath id="8f7ccb867f"><path d="M 18 8 L 29 8 L 29 25.984375 L 18 25.984375 Z M 18 8 " clip-rule="nonzero"/></clipPath><clipPath id="cb6dd9e81c"><path d="M 20 16 L 35.417969 16 L 35.417969 25.984375 L 20 25.984375 Z M 20 16 " clip-rule="nonzero"/></clipPath><clipPath id="3e13133080"><path d="M 0.582031 16 L 16 16 L 16 25.984375 L 0.582031 25.984375 Z M 0.582031 16 " clip-rule="nonzero"/></clipPath></defs><g clip-path="url(#ddf8fb34a0)"><path fill="#22b573" d="M 12.726562 12.449219 C 5.832031 7.410156 7.457031 2.761719 7.457031 2.761719 C 8.621094 5.941406 14.277344 8.808594 16.527344 11.828125 C 18.324219 14.242188 16.804688 20.363281 16.121094 23.125 C 16.175781 18.65625 15.410156 14.40625 12.726562 12.449219 Z M 12.726562 12.449219 " fill-opacity="1" fill-rule="nonzero"/></g><path fill="#22b573" d="M 16.785156 10.152344 C 15.613281 10.152344 14.667969 9.203125 14.667969 8.035156 C 14.667969 6.863281 15.613281 5.914062 16.785156 5.914062 C 17.953125 5.914062 18.902344 6.863281 18.902344 8.035156 C 18.902344 9.203125 17.953125 10.152344 16.785156 10.152344 Z M 16.785156 10.152344 " fill-opacity="1" fill-rule="nonzero"/><g clip-path="url(#8f7ccb867f)"><path fill="#ffffff" d="M 28.65625 8.105469 C 28.65625 8.105469 29.640625 12.375 23.046875 16.160156 C 20.488281 17.628906 19.390625 21.316406 19.003906 25.269531 C 18.671875 22.761719 17.925781 17.203125 19.75 15.242188 C 22.03125 12.785156 27.3125 10.800781 28.65625 8.105469 Z M 28.65625 8.105469 " fill-opacity="1" fill-rule="nonzero"/></g><path fill="#ffffff" d="M 20.097656 9.980469 C 21.132812 10.097656 21.878906 11.027344 21.765625 12.0625 C 21.648438 13.097656 20.71875 13.84375 19.683594 13.730469 C 18.648438 13.613281 17.902344 12.683594 18.019531 11.648438 C 18.132812 10.613281 19.0625 9.867188 20.097656 9.980469 Z M 20.097656 9.980469 " fill-opacity="1" fill-rule="nonzero"/><path fill="#ffffff" d="M 25.277344 23.1875 C 25.40625 23.285156 25.550781 23.351562 25.710938 23.375 C 26.523438 23.5 27.351562 22.492188 27.5625 21.125 C 27.773438 19.757812 27.28125 18.546875 26.46875 18.421875 C 26.21875 18.378906 25.964844 18.453125 25.726562 18.609375 C 26.074219 18.25 26.480469 18.058594 26.886719 18.121094 C 27.796875 18.261719 28.347656 19.617188 28.109375 21.152344 C 27.875 22.683594 26.945312 23.816406 26.03125 23.675781 C 25.738281 23.628906 25.480469 23.453125 25.277344 23.1875 Z M 25.277344 23.1875 " fill-opacity="1" fill-rule="nonzero"/><path fill="#ffffff" d="M 32.816406 20.390625 L 33.363281 20.496094 C 33.363281 20.496094 33.589844 22.253906 32.742188 23.777344 L 32.175781 23.707031 C 32.4375 23.160156 32.636719 22.535156 32.746094 21.851562 C 32.824219 21.347656 32.84375 20.855469 32.816406 20.390625 Z M 32.816406 20.390625 " fill-opacity="1" fill-rule="nonzero"/><g clip-path="url(#cb6dd9e81c)"><path fill="#ffffff" d="M 20.582031 20.3125 C 21.613281 20.429688 22.65625 20.578125 23.640625 20.773438 C 23.515625 21.863281 23.628906 22.917969 23.972656 23.765625 C 24.359375 24.722656 24.988281 25.3125 25.742188 25.429688 L 30.410156 26.242188 C 30.496094 26.257812 30.582031 26.261719 30.667969 26.261719 C 31.941406 26.261719 33.1875 24.84375 33.714844 22.851562 L 34.8125 23.125 C 35.003906 23.175781 35.207031 23.085938 35.292969 22.90625 C 35.375 22.738281 35.40625 22.566406 35.410156 22.425781 C 35.417969 22.234375 35.300781 22.058594 35.117188 22 L 33.9375 21.621094 C 34.042969 20.550781 33.929688 19.519531 33.597656 18.683594 C 33.214844 17.707031 32.585938 17.105469 31.832031 16.992188 C 31.683594 16.980469 28.691406 16.578125 27.128906 16.367188 C 26.378906 16.253906 25.601562 16.628906 24.945312 17.425781 C 24.601562 17.84375 24.3125 18.355469 24.089844 18.925781 C 24.078125 18.957031 24.070312 18.988281 24.054688 19.019531 C 24.023438 19.109375 23.992188 19.199219 23.960938 19.289062 C 23.933594 19.378906 23.90625 19.464844 23.878906 19.554688 C 23.867188 19.59375 23.859375 19.628906 23.847656 19.667969 C 23.828125 19.738281 23.8125 19.808594 23.796875 19.875 C 23.023438 19.75 22.050781 19.605469 20.921875 19.472656 C 20.796875 19.742188 20.6875 20.019531 20.582031 20.3125 Z M 26.796875 25.277344 C 27.195312 25.101562 27.578125 24.796875 27.925781 24.375 C 28.191406 24.054688 28.417969 23.679688 28.613281 23.269531 L 29.554688 23.386719 C 29.109375 24.367188 28.484375 25.09375 27.808594 25.398438 C 29 25.121094 30.097656 23.554688 30.40625 21.527344 C 30.683594 19.714844 30.253906 18.066406 29.40625 17.292969 C 29.382812 17.265625 29.363281 17.238281 29.34375 17.214844 C 29.664062 17.472656 29.929688 17.84375 30.128906 18.300781 C 30.4375 18.34375 30.769531 18.390625 31.097656 18.433594 C 31.257812 18.925781 31.355469 19.496094 31.378906 20.109375 L 30.519531 19.945312 C 30.554688 20.445312 30.539062 20.976562 30.453125 21.527344 C 30.34375 22.226562 30.136719 22.867188 29.867188 23.421875 L 30.695312 23.523438 C 30.253906 24.472656 29.640625 25.175781 28.976562 25.472656 C 30.167969 25.195312 31.265625 23.628906 31.578125 21.601562 C 31.847656 19.835938 31.445312 18.222656 30.640625 17.425781 C 30.605469 17.378906 30.570312 17.332031 30.535156 17.289062 C 30.878906 17.5625 31.160156 17.96875 31.363281 18.46875 C 31.644531 18.507812 31.910156 18.542969 32.140625 18.570312 C 32.324219 19.074219 32.433594 19.671875 32.460938 20.316406 L 31.71875 20.175781 C 31.742188 20.628906 31.722656 21.109375 31.644531 21.601562 C 31.53125 22.328125 31.3125 22.992188 31.027344 23.5625 L 31.828125 23.660156 C 31.382812 24.664062 30.75 25.410156 30.0625 25.71875 C 31.253906 25.441406 32.351562 23.875 32.660156 21.847656 C 32.917969 20.15625 32.5625 18.609375 31.824219 17.78125 C 31.765625 17.695312 31.699219 17.613281 31.636719 17.535156 C 31.953125 17.789062 32.214844 18.15625 32.414062 18.601562 C 32.664062 18.632812 32.847656 18.652344 32.917969 18.652344 L 33.003906 18.652344 C 32.683594 17.710938 31.792969 17.316406 31.792969 17.316406 C 32.414062 17.410156 32.949219 17.9375 33.289062 18.800781 C 33.640625 19.691406 33.734375 20.824219 33.554688 21.984375 C 33.191406 24.355469 31.804688 26.117188 30.464844 25.910156 Z M 29.894531 18.269531 C 30.0625 18.742188 30.171875 19.289062 30.203125 19.882812 L 29.269531 19.703125 C 29.226562 19.136719 29.117188 18.605469 28.941406 18.132812 C 29.128906 18.160156 29.476562 18.210938 29.894531 18.269531 Z M 23.964844 20.839844 C 24.066406 20.863281 24.167969 20.882812 24.265625 20.90625 C 24.089844 22.671875 24.6875 24.1875 25.683594 24.507812 C 24.953125 23.929688 24.554688 22.5625 24.710938 21.007812 C 25.085938 21.101562 25.449219 21.199219 25.792969 21.308594 C 25.792969 21.308594 26.207031 20.722656 25.792969 20.25 C 25.792969 20.25 25.464844 20.175781 24.867188 20.066406 C 25.214844 18.640625 25.972656 17.546875 26.800781 17.234375 C 25.804688 17.238281 24.832031 18.382812 24.429688 19.988281 C 24.332031 19.972656 24.230469 19.953125 24.128906 19.933594 C 24.144531 19.859375 24.160156 19.785156 24.183594 19.710938 C 24.1875 19.699219 24.1875 19.6875 24.191406 19.675781 C 24.226562 19.554688 24.265625 19.4375 24.300781 19.320312 C 24.304688 19.308594 24.308594 19.296875 24.3125 19.285156 C 24.355469 19.167969 24.398438 19.050781 24.445312 18.9375 C 24.445312 18.933594 24.449219 18.925781 24.453125 18.917969 C 24.65625 18.433594 24.910156 18 25.207031 17.636719 C 25.65625 17.09375 26.15625 16.769531 26.652344 16.699219 C 26.65625 16.699219 26.65625 16.699219 26.660156 16.699219 C 26.730469 16.6875 26.800781 16.683594 26.867188 16.683594 C 26.941406 16.683594 27.015625 16.6875 27.085938 16.699219 C 27.71875 16.796875 28.253906 17.316406 28.597656 18.15625 C 28.949219 19.03125 29.046875 20.136719 28.871094 21.277344 C 28.699219 22.410156 28.273438 23.4375 27.675781 24.167969 C 27.097656 24.867188 26.433594 25.203125 25.800781 25.105469 C 25.203125 25.011719 24.695312 24.554688 24.355469 23.800781 C 24.332031 23.75 24.308594 23.699219 24.285156 23.648438 C 24.242188 23.539062 24.203125 23.425781 24.167969 23.308594 C 23.9375 22.578125 23.867188 21.722656 23.964844 20.839844 Z M 23.964844 20.839844 " fill-opacity="1" fill-rule="nonzero"/></g><path fill="#ffffff" d="M 9.113281 18.121094 C 9.515625 18.0625 9.921875 18.25 10.273438 18.609375 C 10.035156 18.453125 9.78125 18.382812 9.527344 18.421875 C 8.714844 18.542969 8.226562 19.753906 8.4375 21.125 C 8.644531 22.492188 9.476562 23.5 10.289062 23.375 C 10.445312 23.351562 10.589844 23.285156 10.722656 23.1875 C 10.515625 23.453125 10.257812 23.628906 9.964844 23.675781 C 9.050781 23.816406 8.121094 22.683594 7.886719 21.152344 C 7.652344 19.617188 8.199219 18.261719 9.113281 18.121094 Z M 9.113281 18.121094 " fill-opacity="1" fill-rule="nonzero"/><path fill="#ffffff" d="M 3.253906 21.851562 C 3.359375 22.535156 3.558594 23.160156 3.820312 23.707031 L 3.253906 23.777344 C 2.40625 22.253906 2.636719 20.496094 2.636719 20.496094 L 3.179688 20.390625 C 3.152344 20.855469 3.175781 21.347656 3.253906 21.851562 Z M 3.253906 21.851562 " fill-opacity="1" fill-rule="nonzero"/><g clip-path="url(#3e13133080)"><path fill="#ffffff" d="M 0.589844 22.421875 C 0.59375 22.566406 0.625 22.738281 0.707031 22.90625 C 0.792969 23.082031 0.996094 23.171875 1.1875 23.125 L 2.285156 22.847656 C 2.8125 24.839844 4.0625 26.261719 5.332031 26.261719 C 5.417969 26.261719 5.503906 26.253906 5.589844 26.242188 L 10.257812 25.425781 C 11.011719 25.3125 11.640625 24.722656 12.027344 23.765625 C 12.371094 22.914062 12.484375 21.863281 12.359375 20.769531 C 13.335938 20.578125 14.375 20.429688 15.398438 20.3125 C 15.375 20.019531 15.34375 19.730469 15.308594 19.445312 C 14.082031 19.585938 13.027344 19.742188 12.203125 19.875 C 12.1875 19.808594 12.167969 19.734375 12.152344 19.667969 C 12.140625 19.628906 12.132812 19.59375 12.121094 19.554688 C 12.09375 19.464844 12.066406 19.375 12.039062 19.289062 C 12.007812 19.199219 11.976562 19.105469 11.945312 19.019531 C 11.933594 18.988281 11.921875 18.957031 11.910156 18.925781 C 11.6875 18.355469 11.398438 17.84375 11.054688 17.425781 C 10.398438 16.628906 9.621094 16.253906 8.871094 16.367188 C 7.308594 16.578125 4.316406 16.976562 4.167969 16.992188 C 3.414062 17.105469 2.785156 17.707031 2.402344 18.683594 C 2.070312 19.519531 1.957031 20.550781 2.0625 21.621094 L 0.882812 22 C 0.699219 22.058594 0.582031 22.230469 0.589844 22.421875 Z M 8.328125 24.160156 C 7.726562 23.433594 7.304688 22.410156 7.128906 21.269531 C 6.953125 20.132812 7.054688 19.027344 7.40625 18.152344 C 7.746094 17.3125 8.285156 16.792969 8.917969 16.695312 C 8.988281 16.683594 9.0625 16.679688 9.132812 16.679688 C 9.203125 16.679688 9.273438 16.683594 9.339844 16.695312 C 9.34375 16.695312 9.34375 16.695312 9.351562 16.695312 C 9.847656 16.765625 10.347656 17.089844 10.796875 17.632812 C 11.089844 17.992188 11.34375 18.429688 11.550781 18.914062 C 11.550781 18.921875 11.554688 18.929688 11.558594 18.933594 C 11.605469 19.046875 11.648438 19.164062 11.6875 19.28125 C 11.691406 19.292969 11.695312 19.300781 11.699219 19.316406 C 11.742188 19.429688 11.777344 19.550781 11.808594 19.671875 C 11.8125 19.683594 11.816406 19.695312 11.820312 19.707031 C 11.839844 19.78125 11.855469 19.855469 11.875 19.929688 C 11.769531 19.949219 11.667969 19.964844 11.574219 19.984375 C 11.167969 18.378906 10.195312 17.234375 9.203125 17.230469 C 10.03125 17.542969 10.789062 18.632812 11.132812 20.0625 C 10.539062 20.171875 10.210938 20.246094 10.210938 20.246094 C 9.796875 20.714844 10.210938 21.300781 10.210938 21.300781 C 10.554688 21.195312 10.917969 21.097656 11.292969 21.003906 C 11.449219 22.5625 11.050781 23.925781 10.320312 24.503906 C 11.3125 24.183594 11.914062 22.667969 11.734375 20.902344 C 11.835938 20.878906 11.9375 20.855469 12.035156 20.835938 C 12.132812 21.722656 12.066406 22.574219 11.839844 23.300781 C 11.804688 23.417969 11.761719 23.53125 11.71875 23.640625 C 11.699219 23.691406 11.675781 23.742188 11.652344 23.792969 C 11.308594 24.542969 10.800781 25.003906 10.207031 25.097656 C 9.570312 25.195312 8.902344 24.863281 8.328125 24.160156 Z M 6.730469 19.703125 L 5.796875 19.882812 C 5.828125 19.289062 5.9375 18.742188 6.105469 18.269531 C 6.523438 18.210938 6.871094 18.160156 7.0625 18.132812 C 6.882812 18.605469 6.773438 19.140625 6.730469 19.703125 Z M 2.710938 18.804688 C 3.050781 17.945312 3.585938 17.417969 4.207031 17.320312 C 4.207031 17.320312 3.3125 17.714844 2.996094 18.65625 L 3.082031 18.65625 C 3.152344 18.65625 3.335938 18.636719 3.585938 18.605469 C 3.785156 18.160156 4.050781 17.792969 4.363281 17.539062 C 4.300781 17.617188 4.234375 17.699219 4.175781 17.785156 C 3.441406 18.613281 3.082031 20.160156 3.339844 21.851562 C 3.648438 23.878906 4.746094 25.445312 5.9375 25.722656 C 5.25 25.414062 4.617188 24.667969 4.171875 23.667969 L 4.972656 23.566406 C 4.6875 23 4.46875 22.332031 4.355469 21.605469 C 4.277344 21.113281 4.257812 20.632812 4.28125 20.179688 L 3.539062 20.320312 C 3.566406 19.675781 3.675781 19.082031 3.859375 18.574219 C 4.089844 18.542969 4.359375 18.511719 4.636719 18.472656 C 4.839844 17.972656 5.121094 17.566406 5.464844 17.292969 C 5.425781 17.335938 5.394531 17.382812 5.359375 17.429688 C 4.554688 18.226562 4.152344 19.839844 4.421875 21.605469 C 4.734375 23.628906 5.832031 25.199219 7.023438 25.476562 C 6.359375 25.179688 5.746094 24.476562 5.304688 23.527344 L 6.132812 23.425781 C 5.859375 22.871094 5.65625 22.230469 5.546875 21.53125 C 5.460938 20.980469 5.445312 20.449219 5.480469 19.949219 L 4.621094 20.113281 C 4.640625 19.5 4.742188 18.929688 4.902344 18.4375 C 5.230469 18.394531 5.5625 18.347656 5.871094 18.304688 C 6.070312 17.847656 6.335938 17.476562 6.65625 17.21875 C 6.636719 17.242188 6.617188 17.269531 6.59375 17.296875 C 5.746094 18.070312 5.316406 19.71875 5.59375 21.53125 C 5.902344 23.558594 7 25.125 8.191406 25.402344 C 7.515625 25.097656 6.886719 24.371094 6.445312 23.390625 L 7.386719 23.277344 C 7.582031 23.6875 7.808594 24.058594 8.074219 24.378906 C 8.421875 24.804688 8.804688 25.105469 9.203125 25.28125 L 5.535156 25.917969 C 4.195312 26.125 2.808594 24.363281 2.445312 21.992188 C 2.265625 20.824219 2.359375 19.695312 2.710938 18.804688 Z M 2.710938 18.804688 " fill-opacity="1" fill-rule="nonzero"/></g></svg>